<?xml version="1.0" standalone="no"?>
<!DOCTYPE svg PUBLIC "-//W3C//DTD SVG 20010904//EN"
 "http://www.w3.org/TR/2001/REC-SVG-20010904/DTD/svg10.dtd">
<svg version="1.0" xmlns="http://www.w3.org/2000/svg"
 width="335.000000pt" height="335.000000pt" viewBox="0 0 335.000000 335.000000"
 preserveAspectRatio="xMidYMid meet">
<metadata>
Created by potrace 1.14, written by Peter Selinger 2001-2017
</metadata>
<g transform="translate(0.000000,335.000000) scale(0.100000,-0.100000)"
fill="#000000" stroke="none">
<path d="M1650 3000 l0 -350 310 0 310 0 0 350 0 350 -310 0 -310 0 0 -350z"/>
<path d="M742 2220 l3 -305 297 0 c191 0 299 3 301 10 2 5 3 143 3 305 l-1
295 -303 0 -302 0 2 -305z"/>
<path d="M1650 1548 c2 -574 1 -588 -46 -696 -75 -171 -205 -243 -413 -228
-185 14 -313 70 -498 218 -8 6 -68 -61 -203 -227 -105 -130 -190 -240 -188
-246 2 -5 47 -42 101 -83 278 -208 598 -301 941 -275 392 31 681 245 834 619
83 204 92 295 92 932 l0 528 -310 0 -311 0 1 -542z"/>
<path d="M2365 477 c-62 -29 -95 -94 -95 -189 1 -135 82 -217 190 -193 43 9
96 59 111 102 31 94 3 223 -58 267 -33 24 -109 31 -148 13z m97 -67 c47 -36
57 -141 22 -211 -23 -46 -68 -52 -104 -14 -20 21 -25 39 -28 94 -5 76 13 126
51 141 31 12 31 12 59 -10z"/>
<path d="M2630 290 l0 -190 40 0 40 0 0 190 0 190 -40 0 -40 0 0 -190z"/>
<path d="M2770 290 l0 -190 35 0 35 0 1 123 0 122 62 -123 62 -122 37 0 38 0
0 190 0 190 -36 0 -36 0 4 -121 4 -120 -60 120 -61 121 -42 0 -43 0 0 -190z"/>
</g>
</svg>
